<?xml version="1.0" encoding="iso-8859-1"?>
<!-- Generator: Adobe Illustrator 16.0.0, SVG Export Plug-In . SVG Version: 6.00 Build 0)  -->
<!DOCTYPE svg PUBLIC "-//W3C//DTD SVG 1.1//EN" "http://www.w3.org/Graphics/SVG/1.1/DTD/svg11.dtd">
<svg version="1.1" id="Layer_1" xmlns="http://www.w3.org/2000/svg" xmlns:xlink="http://www.w3.org/1999/xlink" x="0px" y="0px"
	  viewBox="0 0 500 500" style="enable-background:new 0 0 500 500;" xml:space="preserve">
<g id="face">
	<circle style="fill:#901923;" fill-opacity="0.0" cx="250" cy="250" r="250"/>
	<g>
		<path style="fill:#FFFFFF;" d="M339.942,97.548c-0.276,0.478-0.887,0.642-1.365,0.366l-1.154-0.667
			c-0.479-0.276-0.642-0.888-0.366-1.365l25.334-43.879c0.275-0.479,0.888-0.643,1.365-0.366l1.155,0.666
			c0.478,0.276,0.642,0.888,0.365,1.366L339.942,97.548z"/>
		<path style="fill:#FFFFFF;" d="M331.299,70.042c-0.121,0.27-0.481,0.372-0.808,0.227l-0.785-0.35
			c-0.325-0.145-0.491-0.481-0.371-0.751l11.038-24.792c0.12-0.271,0.481-0.373,0.807-0.227l0.786,0.349
			c0.325,0.145,0.491,0.481,0.371,0.752L331.299,70.042z"/>
		<path style="fill:#FFFFFF;" d="M312.042,62.53c-0.091,0.281-0.439,0.42-0.778,0.31l-0.817-0.266
			c-0.339-0.11-0.539-0.427-0.447-0.708l8.387-25.81c0.09-0.282,0.439-0.421,0.777-0.311l0.818,0.265
			c0.338,0.111,0.539,0.428,0.447,0.709L312.042,62.53z"/>
		<path style="fill:#FFFFFF;" d="M292.106,57.071c-0.061,0.289-0.393,0.463-0.741,0.39l-0.841-0.179
			c-0.349-0.074-0.581-0.368-0.52-0.658l5.644-26.544c0.059-0.29,0.393-0.465,0.741-0.391l0.841,0.178
			c0.348,0.075,0.58,0.369,0.52,0.659L292.106,57.071z"/>
		<path style="fill:#FFFFFF;" d="M271.71,53.727c-0.03,0.294-0.343,0.501-0.696,0.465l-0.854-0.09
			c-0.355-0.038-0.617-0.306-0.586-0.6l2.837-26.989c0.029-0.294,0.343-0.503,0.696-0.466l0.855,0.089
			c0.354,0.039,0.616,0.307,0.585,0.601L271.71,53.727z"/>
	</g>
	<g>
		<path style="fill:#FFFFFF;" d="M404.119,162.944c-0.479,0.275-1.09,0.112-1.365-0.365l-0.667-1.155
			c-0.276-0.479-0.112-1.09,0.366-1.365l43.879-25.333c0.478-0.276,1.09-0.112,1.365,0.365l0.668,1.155
			c0.275,0.478,0.111,1.089-0.367,1.365L404.119,162.944z"/>
		<path style="fill:#FFFFFF;" d="M410.387,134.802c-0.24,0.173-0.604,0.081-0.813-0.207l-0.505-0.696
			c-0.209-0.287-0.186-0.662,0.054-0.836l21.955-15.951c0.239-0.174,0.604-0.081,0.812,0.207l0.507,0.695
			c0.21,0.289,0.185,0.663-0.055,0.838L410.387,134.802z"/>
		<path style="fill:#FFFFFF;" d="M397.465,118.668c-0.219,0.197-0.59,0.144-0.828-0.121l-0.576-0.639
			c-0.238-0.265-0.253-0.64-0.032-0.837l20.168-18.159c0.218-0.198,0.591-0.145,0.828,0.121l0.576,0.639
			c0.237,0.264,0.253,0.639,0.032,0.838L397.465,118.668z"/>
		<path style="fill:#FFFFFF;" d="M382.93,103.973c-0.197,0.221-0.571,0.205-0.836-0.033l-0.64-0.575
			c-0.265-0.238-0.319-0.609-0.121-0.829l18.159-20.166c0.196-0.223,0.573-0.207,0.838,0.031l0.639,0.575
			c0.264,0.239,0.318,0.61,0.121,0.831L382.93,103.973z"/>
		<path style="fill:#FFFFFF;" d="M366.938,90.878c-0.174,0.239-0.548,0.263-0.836,0.055l-0.695-0.505
			c-0.288-0.211-0.382-0.573-0.207-0.812l15.951-21.955c0.173-0.24,0.548-0.264,0.836-0.055l0.696,0.504
			c0.287,0.211,0.381,0.574,0.206,0.813L366.938,90.878z"/>
	</g>
	<g>
		<path style="fill:#FFFFFF;" d="M426.999,251.668c-0.552-0.001-1-0.447-0.999-0.999v-1.334c0-0.553,0.447-1,0.999-0.999h50.667
			c0.552,0,1,0.447,1,0.999v1.335c0,0.551-0.447,0.998-1,0.998H426.999z"/>
		<path style="fill:#FFFFFF;" d="M446.498,230.43c-0.295,0.029-0.562-0.232-0.601-0.586l-0.089-0.855
			c-0.037-0.354,0.17-0.666,0.464-0.697l26.989-2.837c0.295-0.03,0.563,0.231,0.6,0.585l0.092,0.855
			c0.037,0.355-0.172,0.667-0.467,0.699L446.498,230.43z"/>
		<path style="fill:#FFFFFF;" d="M443.375,209.996c-0.289,0.062-0.583-0.17-0.657-0.52l-0.18-0.84
			c-0.073-0.35,0.101-0.682,0.391-0.742l26.546-5.642c0.287-0.063,0.584,0.171,0.656,0.519l0.18,0.842
			c0.074,0.347-0.1,0.68-0.391,0.742L443.375,209.996z"/>
		<path style="fill:#FFFFFF;" d="M438.135,190.002c-0.281,0.093-0.598-0.107-0.708-0.447l-0.267-0.817
			c-0.109-0.339,0.029-0.688,0.311-0.778l25.809-8.385c0.281-0.095,0.6,0.107,0.711,0.445l0.266,0.818
			c0.107,0.339-0.03,0.688-0.312,0.78L438.135,190.002z"/>
		<path style="fill:#FFFFFF;" d="M430.833,170.666c-0.271,0.121-0.606-0.047-0.751-0.371l-0.35-0.784
			c-0.145-0.327-0.045-0.688,0.227-0.808l24.791-11.037c0.271-0.122,0.607,0.045,0.752,0.37l0.352,0.784
			c0.143,0.326,0.042,0.688-0.229,0.808L430.833,170.666z"/>
	</g>
	<g>
		<path style="fill:#FFFFFF;" d="M402.452,339.942c-0.478-0.276-0.642-0.887-0.366-1.365l0.667-1.154
			c0.276-0.479,0.888-0.642,1.365-0.366l43.879,25.334c0.479,0.275,0.643,0.888,0.366,1.365l-0.666,1.155
			c-0.276,0.478-0.888,0.642-1.366,0.365L402.452,339.942z"/>
		<path style="fill:#FFFFFF;" d="M429.958,331.299c-0.271-0.121-0.372-0.481-0.228-0.808l0.351-0.785
			c0.145-0.325,0.481-0.491,0.751-0.371l24.791,11.038c0.271,0.12,0.373,0.481,0.228,0.807l-0.349,0.786
			c-0.146,0.325-0.482,0.491-0.752,0.371L429.958,331.299z"/>
		<path style="fill:#FFFFFF;" d="M437.471,312.042c-0.281-0.091-0.42-0.439-0.311-0.778l0.266-0.817
			c0.11-0.339,0.428-0.539,0.709-0.447l25.809,8.387c0.282,0.09,0.422,0.439,0.311,0.777l-0.265,0.818
			c-0.11,0.338-0.428,0.539-0.71,0.447L437.471,312.042z"/>
		<path style="fill:#FFFFFF;" d="M442.929,292.106c-0.289-0.061-0.464-0.393-0.39-0.741l0.179-0.841
			c0.074-0.349,0.368-0.581,0.657-0.52l26.545,5.644c0.289,0.059,0.465,0.393,0.391,0.741l-0.178,0.841
			c-0.076,0.348-0.369,0.58-0.659,0.52L442.929,292.106z"/>
		<path style="fill:#FFFFFF;" d="M446.273,271.71c-0.295-0.03-0.502-0.343-0.465-0.696l0.09-0.854
			c0.037-0.355,0.305-0.617,0.6-0.586l26.988,2.837c0.295,0.029,0.504,0.343,0.467,0.696l-0.09,0.855
			c-0.038,0.354-0.307,0.616-0.601,0.585L446.273,271.71z"/>
	</g>
	<g>
		<path style="fill:#FFFFFF;" d="M337.056,404.119c-0.275-0.479-0.112-1.09,0.365-1.365l1.155-0.667
			c0.479-0.276,1.09-0.112,1.365,0.366l25.333,43.879c0.276,0.478,0.112,1.09-0.365,1.365l-1.155,0.668
			c-0.478,0.275-1.089,0.111-1.365-0.367L337.056,404.119z"/>
		<path style="fill:#FFFFFF;" d="M365.198,410.387c-0.173-0.24-0.081-0.604,0.207-0.813l0.696-0.505
			c0.287-0.209,0.662-0.186,0.836,0.054l15.951,21.955c0.174,0.239,0.081,0.604-0.207,0.812l-0.695,0.507
			c-0.289,0.21-0.663,0.185-0.838-0.055L365.198,410.387z"/>
		<path style="fill:#FFFFFF;" d="M381.332,397.465c-0.197-0.219-0.144-0.59,0.121-0.828l0.639-0.576
			c0.265-0.238,0.64-0.253,0.837-0.032l18.159,20.168c0.198,0.218,0.145,0.591-0.121,0.828l-0.639,0.576
			c-0.264,0.237-0.639,0.253-0.838,0.032L381.332,397.465z"/>
		<path style="fill:#FFFFFF;" d="M396.027,382.93c-0.221-0.197-0.205-0.571,0.033-0.836l0.575-0.64
			c0.238-0.265,0.609-0.319,0.829-0.121l20.166,18.159c0.223,0.196,0.207,0.573-0.031,0.838l-0.575,0.639
			c-0.239,0.264-0.61,0.318-0.831,0.121L396.027,382.93z"/>
		<path style="fill:#FFFFFF;" d="M409.122,366.938c-0.239-0.174-0.263-0.548-0.055-0.836l0.505-0.695
			c0.211-0.288,0.573-0.382,0.812-0.207l21.955,15.951c0.24,0.173,0.264,0.548,0.055,0.836l-0.504,0.696
			c-0.211,0.287-0.574,0.381-0.813,0.206L409.122,366.938z"/>
	</g>
	<g>
		<path style="fill:#FFFFFF;" d="M248.332,426.999c0.001-0.552,0.447-1,0.999-0.999h1.334c0.553,0,1,0.447,0.999,0.999v50.667
			c0,0.552-0.447,1-0.999,1h-1.335c-0.551,0-0.998-0.447-0.998-1V426.999z"/>
		<path style="fill:#FFFFFF;" d="M269.57,446.498c-0.029-0.295,0.232-0.562,0.586-0.601l0.855-0.089
			c0.354-0.037,0.666,0.17,0.697,0.464l2.837,26.989c0.03,0.295-0.231,0.563-0.585,0.6l-0.855,0.092
			c-0.355,0.037-0.667-0.172-0.699-0.467L269.57,446.498z"/>
		<path style="fill:#FFFFFF;" d="M290.004,443.375c-0.062-0.289,0.17-0.583,0.52-0.657l0.84-0.18
			c0.35-0.073,0.682,0.101,0.742,0.391l5.642,26.546c0.063,0.287-0.171,0.584-0.519,0.656l-0.842,0.18
			c-0.347,0.074-0.68-0.1-0.742-0.391L290.004,443.375z"/>
		<path style="fill:#FFFFFF;" d="M309.998,438.135c-0.093-0.281,0.107-0.598,0.447-0.708l0.817-0.267
			c0.339-0.109,0.688,0.029,0.778,0.311l8.385,25.809c0.095,0.281-0.107,0.6-0.445,0.711l-0.818,0.266
			c-0.339,0.107-0.688-0.03-0.78-0.312L309.998,438.135z"/>
		<path style="fill:#FFFFFF;" d="M329.334,430.833c-0.121-0.271,0.047-0.606,0.371-0.751l0.784-0.35
			c0.327-0.145,0.688-0.045,0.808,0.227l11.037,24.791c0.122,0.271-0.045,0.607-0.37,0.752l-0.784,0.352
			c-0.326,0.143-0.688,0.042-0.808-0.229L329.334,430.833z"/>
	</g>
	<g>
		<path style="fill:#FFFFFF;" d="M160.058,402.452c0.276-0.478,0.887-0.642,1.365-0.366l1.154,0.667
			c0.479,0.276,0.642,0.888,0.366,1.365l-25.334,43.879c-0.275,0.479-0.888,0.643-1.365,0.366l-1.155-0.666
			c-0.478-0.276-0.642-0.888-0.365-1.366L160.058,402.452z"/>
		<path style="fill:#FFFFFF;" d="M168.701,429.958c0.121-0.271,0.481-0.372,0.808-0.228l0.785,0.351
			c0.325,0.145,0.491,0.481,0.371,0.751l-11.038,24.791c-0.12,0.271-0.481,0.373-0.807,0.228l-0.786-0.349
			c-0.325-0.146-0.491-0.482-0.371-0.752L168.701,429.958z"/>
		<path style="fill:#FFFFFF;" d="M187.958,437.471c0.091-0.281,0.439-0.42,0.778-0.311l0.817,0.266
			c0.339,0.11,0.539,0.428,0.447,0.709l-8.387,25.809c-0.09,0.282-0.439,0.422-0.777,0.311l-0.818-0.265
			c-0.338-0.11-0.539-0.428-0.447-0.71L187.958,437.471z"/>
		<path style="fill:#FFFFFF;" d="M207.894,442.929c0.061-0.289,0.393-0.464,0.741-0.39l0.841,0.179
			c0.349,0.074,0.581,0.368,0.52,0.657l-5.644,26.545c-0.059,0.289-0.393,0.465-0.741,0.391l-0.841-0.178
			c-0.348-0.076-0.58-0.369-0.52-0.659L207.894,442.929z"/>
		<path style="fill:#FFFFFF;" d="M228.29,446.273c0.03-0.295,0.343-0.502,0.696-0.465l0.854,0.09c0.355,0.037,0.617,0.305,0.586,0.6
			l-2.837,26.988c-0.029,0.295-0.343,0.504-0.696,0.467l-0.855-0.09c-0.354-0.038-0.616-0.307-0.585-0.601L228.29,446.273z"/>
	</g>
	<g>
		<path style="fill:#FFFFFF;" d="M95.881,337.056c0.479-0.275,1.09-0.112,1.365,0.365l0.667,1.155
			c0.276,0.479,0.112,1.09-0.366,1.365l-43.879,25.333c-0.478,0.276-1.09,0.112-1.365-0.365l-0.668-1.155
			c-0.275-0.478-0.111-1.089,0.367-1.365L95.881,337.056z"/>
		<path style="fill:#FFFFFF;" d="M89.613,365.198c0.24-0.173,0.604-0.081,0.813,0.207l0.505,0.696
			c0.209,0.287,0.186,0.662-0.054,0.836l-21.955,15.951c-0.239,0.174-0.604,0.081-0.812-0.207l-0.507-0.695
			c-0.21-0.289-0.185-0.663,0.055-0.838L89.613,365.198z"/>
		<path style="fill:#FFFFFF;" d="M102.535,381.332c0.219-0.197,0.59-0.144,0.828,0.121l0.576,0.639
			c0.238,0.265,0.253,0.64,0.032,0.837l-20.168,18.159c-0.218,0.198-0.591,0.145-0.828-0.121l-0.576-0.639
			c-0.237-0.264-0.253-0.639-0.032-0.838L102.535,381.332z"/>
		<path style="fill:#FFFFFF;" d="M117.07,396.027c0.197-0.221,0.571-0.205,0.836,0.033l0.64,0.575
			c0.265,0.238,0.319,0.609,0.121,0.829l-18.159,20.166c-0.196,0.223-0.573,0.207-0.838-0.031l-0.639-0.575
			c-0.264-0.239-0.318-0.61-0.121-0.831L117.07,396.027z"/>
		<path style="fill:#FFFFFF;" d="M133.062,409.122c0.174-0.239,0.548-0.263,0.836-0.055l0.695,0.505
			c0.288,0.211,0.382,0.573,0.207,0.812l-15.951,21.955c-0.173,0.24-0.548,0.264-0.836,0.055l-0.696-0.504
			c-0.287-0.211-0.381-0.574-0.206-0.813L133.062,409.122z"/>
	</g>
	<g>
		<path style="fill:#FFFFFF;" d="M97.548,160.058c0.478,0.276,0.642,0.887,0.366,1.365l-0.667,1.154
			c-0.276,0.479-0.888,0.642-1.365,0.366l-43.879-25.334c-0.479-0.275-0.643-0.888-0.366-1.365l0.666-1.155
			c0.276-0.478,0.888-0.642,1.366-0.365L97.548,160.058z"/>
		<path style="fill:#FFFFFF;" d="M70.042,168.701c0.271,0.121,0.372,0.481,0.228,0.808l-0.351,0.785
			c-0.145,0.325-0.481,0.491-0.751,0.371l-24.791-11.038c-0.271-0.12-0.373-0.481-0.228-0.807l0.349-0.786
			c0.146-0.325,0.482-0.491,0.752-0.371L70.042,168.701z"/>
		<path style="fill:#FFFFFF;" d="M62.529,187.958c0.281,0.091,0.42,0.439,0.311,0.778l-0.266,0.817
			c-0.11,0.339-0.428,0.539-0.709,0.447l-25.809-8.387c-0.282-0.09-0.422-0.439-0.311-0.777l0.265-0.818
			c0.11-0.338,0.428-0.539,0.71-0.447L62.529,187.958z"/>
		<path style="fill:#FFFFFF;" d="M57.071,207.894c0.289,0.061,0.464,0.393,0.39,0.741l-0.179,0.841
			c-0.074,0.349-0.368,0.581-0.657,0.52l-26.545-5.644c-0.289-0.059-0.465-0.393-0.391-0.741l0.178-0.841
			c0.076-0.348,0.369-0.58,0.659-0.52L57.071,207.894z"/>
		<path style="fill:#FFFFFF;" d="M53.727,228.29c0.295,0.03,0.502,0.343,0.465,0.696l-0.09,0.854
			c-0.037,0.355-0.305,0.617-0.6,0.586l-26.988-2.837c-0.295-0.029-0.504-0.343-0.467-0.696l0.09-0.855
			c0.038-0.354,0.307-0.616,0.601-0.585L53.727,228.29z"/>
	</g>
	<g>
		<path style="fill:#FFFFFF;" d="M162.944,95.881c0.275,0.479,0.112,1.09-0.365,1.365l-1.155,0.667
			c-0.479,0.276-1.09,0.112-1.365-0.366l-25.333-43.879c-0.276-0.478-0.112-1.09,0.365-1.365l1.155-0.668
			c0.478-0.275,1.089-0.111,1.365,0.367L162.944,95.881z"/>
		<path style="fill:#FFFFFF;" d="M134.802,89.613c0.173,0.24,0.081,0.604-0.207,0.813l-0.696,0.505
			c-0.287,0.209-0.662,0.186-0.836-0.054l-15.951-21.955c-0.174-0.239-0.081-0.604,0.207-0.812l0.695-0.507
			c0.289-0.21,0.663-0.185,0.838,0.055L134.802,89.613z"/>
		<path style="fill:#FFFFFF;" d="M118.668,102.535c0.197,0.219,0.144,0.59-0.121,0.828l-0.639,0.576
			c-0.265,0.238-0.64,0.253-0.837,0.032L98.912,83.804c-0.198-0.218-0.145-0.591,0.121-0.828l0.639-0.576
			c0.264-0.237,0.639-0.253,0.838-0.032L118.668,102.535z"/>
		<path style="fill:#FFFFFF;" d="M103.973,117.07c0.221,0.197,0.205,0.571-0.033,0.836l-0.575,0.64
			c-0.238,0.265-0.609,0.319-0.829,0.121l-20.166-18.159c-0.223-0.196-0.207-0.573,0.031-0.838l0.575-0.639
			c0.239-0.264,0.61-0.318,0.831-0.121L103.973,117.07z"/>
		<path style="fill:#FFFFFF;" d="M90.878,133.062c0.239,0.174,0.263,0.548,0.055,0.836l-0.505,0.695
			c-0.211,0.288-0.573,0.382-0.812,0.207L67.66,118.849c-0.24-0.173-0.264-0.548-0.055-0.836l0.504-0.696
			c0.211-0.287,0.574-0.381,0.813-0.206L90.878,133.062z"/>
	</g>
	<g>
		<path style="fill:#FFFFFF;" d="M251.668,73.001c-0.001,0.552-0.447,1-0.999,0.999h-1.334c-0.553,0-1-0.447-0.999-0.999V22.334
			c0-0.552,0.447-1,0.999-1h1.335c0.551,0,0.998,0.447,0.998,1V73.001z"/>
		<path style="fill:#FFFFFF;" d="M230.43,53.502c0.029,0.295-0.232,0.562-0.586,0.601l-0.855,0.089
			c-0.354,0.037-0.666-0.17-0.697-0.464l-2.837-26.989c-0.03-0.295,0.231-0.563,0.585-0.6l0.855-0.092
			c0.355-0.037,0.667,0.172,0.699,0.467L230.43,53.502z"/>
		<path style="fill:#FFFFFF;" d="M209.996,56.625c0.062,0.289-0.17,0.583-0.52,0.657l-0.84,0.18
			c-0.35,0.073-0.682-0.101-0.742-0.391l-5.642-26.546c-0.063-0.287,0.171-0.584,0.519-0.656l0.842-0.18
			c0.347-0.074,0.68,0.1,0.742,0.391L209.996,56.625z"/>
		<path style="fill:#FFFFFF;" d="M190.002,61.865c0.093,0.281-0.107,0.598-0.447,0.708l-0.817,0.267
			c-0.339,0.109-0.688-0.029-0.778-0.311l-8.385-25.809c-0.095-0.281,0.107-0.6,0.445-0.711l0.818-0.266
			c0.339-0.107,0.688,0.03,0.78,0.312L190.002,61.865z"/>
		<path style="fill:#FFFFFF;" d="M170.666,69.167c0.121,0.271-0.047,0.606-0.371,0.751l-0.784,0.35
			c-0.327,0.145-0.688,0.045-0.808-0.227L157.666,45.25c-0.122-0.271,0.045-0.607,0.37-0.752l0.784-0.352
			c0.326-0.143,0.688-0.042,0.808,0.229L170.666,69.167z"/>
	</g>
	<g>
		<path style="fill:#FFFFFF;" d="M73.001,248.332c0.552,0.001,1,0.447,0.999,0.999v1.334c0,0.553-0.447,1-0.999,0.999H22.334
			c-0.552,0-1-0.447-1-0.999v-1.335c0-0.551,0.447-0.998,1-0.998H73.001z"/>
		<path style="fill:#FFFFFF;" d="M53.502,269.57c0.295-0.029,0.562,0.232,0.601,0.586l0.089,0.855
			c0.037,0.354-0.17,0.666-0.464,0.697l-26.989,2.837c-0.295,0.03-0.563-0.231-0.6-0.585l-0.092-0.855
			c-0.037-0.355,0.172-0.667,0.467-0.699L53.502,269.57z"/>
		<path style="fill:#FFFFFF;" d="M56.625,290.004c0.289-0.062,0.583,0.17,0.657,0.52l0.18,0.84c0.073,0.35-0.101,0.682-0.391,0.742
			l-26.546,5.642c-0.287,0.063-0.584-0.171-0.656-0.519l-0.18-0.842c-0.074-0.347,0.1-0.68,0.391-0.742L56.625,290.004z"/>
		<path style="fill:#FFFFFF;" d="M61.865,309.998c0.281-0.093,0.598,0.107,0.708,0.447l0.267,0.817
			c0.109,0.339-0.029,0.688-0.311,0.778l-25.809,8.385c-0.281,0.095-0.6-0.107-0.711-0.445l-0.266-0.818
			c-0.107-0.339,0.03-0.688,0.312-0.78L61.865,309.998z"/>
		<path style="fill:#FFFFFF;" d="M69.167,329.334c0.271-0.121,0.606,0.047,0.751,0.371l0.35,0.784
			c0.145,0.327,0.045,0.688-0.227,0.808L45.25,342.334c-0.271,0.122-0.607-0.045-0.752-0.37l-0.352-0.784
			c-0.143-0.326-0.042-0.688,0.229-0.808L69.167,329.334z"/>
	</g>
</g>
<g id="hours">
	<path style="fill:#FFFFFF;" d="M255.667,229.17v-136h-11.335v136c-9.179,2.493-15.938,10.861-15.938,20.83
		c0,11.933,9.673,21.606,21.606,21.606c11.933,0,21.606-9.674,21.606-21.606C271.606,240.031,264.846,231.663,255.667,229.17z
		 M251.333,225.5h-2.667v-130h2.667V225.5z"/>
	<circle style="fill:#901923;" cx="250" cy="250" r="19.667"/>
</g>
<path style="fill:#FFFFFF;" d="M254,232.804V38h-8v194.804c-7.828,1.815-13.668,8.816-13.668,17.196
	c0,9.758,7.91,17.668,17.668,17.668s17.668-7.91,17.668-17.668C267.668,241.62,261.828,234.619,254,232.804z M251.333,225.5h-2.666
	V40.12h2.666V225.5z" id="minutes"/>
<g id="seconds">
	<path style="fill:#901923;" d="M251.003,237.077V21.334h-2.006v215.743c-6.694,0.513-11.971,6.096-11.971,12.923
		c0,7.165,5.809,12.974,12.974,12.974s12.974-5.809,12.974-12.974C262.974,243.173,257.698,237.59,251.003,237.077z"/>
	<rect x="248.997" y="21.334" style="fill:#FFFFFF;" width="2.006" height="152.999"/>
</g>
</svg>
